<svg xmlns="http://www.w3.org/2000/svg" viewBox="0 0 64 64"><title>sound wave</title><g class="nc-icon-wrapper" stroke="none" fill="#b32a48"><path fill="#000000" d="M26,53c-0.4,0-0.8-0.3-0.9-0.7l-9.3-26l-4.9,8.2C10.7,34.8,10.4,35,10,35H2c-0.6,0-1-0.4-1-1s0.4-1,1-1h7.4 l5.7-9.5c0.2-0.3,0.6-0.5,1-0.5c0.4,0,0.7,0.3,0.8,0.7l8.9,24.9L35,11.8c0.1-0.4,0.5-0.7,0.9-0.8c0.4,0,0.9,0.3,1,0.7l9.4,31.9 l6.8-10.2c0.2-0.3,0.5-0.4,0.8-0.4h8c0.6,0,1,0.4,1,1s-0.4,1-1,1h-7.5l-7.7,11.6c-0.2,0.3-0.6,0.5-1,0.4c-0.4-0.1-0.7-0.3-0.8-0.7 l-9-30.5L27,52.2C26.9,52.7,26.5,53,26,53C26,53,26,53,26,53z"/></g></svg>